HIERARCHY
ROOT newVegas:Hips
{
	OFFSET 0.000000 96.479958 0.000000
	CHANNELS 6 Xposition Yposition Zposition Xrotation Yrotation Zrotation
	JOINT newVegas:Pelvis
	{
		OFFSET 0.000000 0.000000 0.000000
		CHANNELS 3 Xrotation Yrotation Zrotation
		JOINT newVegas:LeftUpLeg
		{
			OFFSET 18.735201 -5.666702 -4.541200
			CHANNELS 3 Xrotation Yrotation Zrotation
			JOINT newVegas:LeftLeg
			{
				OFFSET -0.021200 -31.938179 0.493100
				CHANNELS 3 Xrotation Yrotation Zrotation
				JOINT newVegas:LeftFoot
				{
					OFFSET 0.021200 -31.938179 -4.336299
					CHANNELS 3 Xrotation Yrotation Zrotation
					JOINT newVegas:LeftToeBase
					{
						OFFSET 0.943001 -26.722000 15.023500
						CHANNELS 3 Xrotation Yrotation Zrotation
						End Site
						{
							OFFSET 0.000000 30.670183 0.000000
						}
					}
				}
				JOINT newVegas:Left_PantLeg
				{
					OFFSET 0.663870 -9.044666 -1.108900
					CHANNELS 3 Xrotation Yrotation Zrotation
					End Site
					{
						OFFSET 1.415995 20.635357 0.000000
					}
				}
			}
		}
		JOINT newVegas:RightUpLeg
		{
			OFFSET -18.735201 -5.666702 -4.541200
			CHANNELS 3 Xrotation Yrotation Zrotation
			JOINT newVegas:RightLeg
			{
				OFFSET 0.018946 -31.938133 0.493100
				CHANNELS 3 Xrotation Yrotation Zrotation
				JOINT newVegas:RightFoot
				{
					OFFSET -0.018946 -31.938126 -4.336299
					CHANNELS 3 Xrotation Yrotation Zrotation
					JOINT newVegas:RightToeBase
					{
						OFFSET -0.943001 -26.722004 15.023500
						CHANNELS 3 Xrotation Yrotation Zrotation
						End Site
						{
							OFFSET 0.000000 30.670187 0.000000
						}
					}
				}
				JOINT newVegas:Right_PantLeg
				{
					OFFSET -0.661674 -9.044716 -1.108900
					CHANNELS 3 Xrotation Yrotation Zrotation
					End Site
					{
						OFFSET -1.415958 20.635269 0.000000
					}
				}
			}
		}
	}
	JOINT newVegas:Spine
	{
		OFFSET 0.000000 10.199997 -0.299500
		CHANNELS 3 Xrotation Yrotation Zrotation
		JOINT newVegas:Spine1
		{
			OFFSET 0.000000 11.900002 -1.516600
			CHANNELS 3 Xrotation Yrotation Zrotation
			JOINT newVegas:Spine2
			{
				OFFSET 0.000000 13.600006 -2.842500
				CHANNELS 3 Xrotation Yrotation Zrotation
				JOINT newVegas:Neck
				{
					OFFSET 0.000000 9.624100 -2.890100
					CHANNELS 3 Xrotation Yrotation Zrotation
					JOINT newVegas:Head
					{
						OFFSET 0.000000 14.068802 -1.351900
						CHANNELS 3 Xrotation Yrotation Zrotation
						JOINT newVegas:Hair_Back
						{
							OFFSET 0.000000 3.231903 -17.524799
							CHANNELS 3 Xrotation Yrotation Zrotation
							End Site
							{
								OFFSET 0.000000 19.849884 0.000000
							}
						}
						JOINT newVegas:Hair_Front
						{
							OFFSET 0.000000 31.260406 4.573800
							CHANNELS 3 Xrotation Yrotation Zrotation
							JOINT newVegas:Hair_Front1
							{
								OFFSET 0.000000 2.284103 11.993300
								CHANNELS 3 Xrotation Yrotation Zrotation
								JOINT newVegas:Hair_Front2
								{
									OFFSET 0.000000 2.284103 11.993300
									CHANNELS 3 Xrotation Yrotation Zrotation
									End Site
									{
										OFFSET 0.000000 12.208862 0.000000
									}
								}
							}
						}
						JOINT newVegas:Jowel
						{
							OFFSET 0.000000 -7.458206 6.864100
							CHANNELS 3 Xrotation Yrotation Zrotation
							End Site
							{
								OFFSET 0.000000 19.849884 0.000000
							}
						}
					}
				}
				JOINT newVegas:LeftShoulder
				{
					OFFSET 15.263000 10.923401 -0.547700
					CHANNELS 3 Xrotation Yrotation Zrotation
					JOINT newVegas:LeftArm
					{
						OFFSET 25.438599 -2.830597 -13.032500
						CHANNELS 3 Xrotation Yrotation Zrotation
						JOINT newVegas:LeftForeArm
						{
							OFFSET 29.960503 0.000000 0.000000
							CHANNELS 3 Xrotation Yrotation Zrotation
							JOINT newVegas:LeftHand
							{
								OFFSET 27.849251 0.000000 0.000000
								CHANNELS 3 Xrotation Yrotation Zrotation
								JOINT newVegas:LeftHandThumb1
								{
									OFFSET 4.487587 -3.305161 6.305391
									CHANNELS 3 Xrotation Yrotation Zrotation
									JOINT newVegas:LeftHandThumb2
									{
										OFFSET 5.480453 -3.164139 3.164143
										CHANNELS 3 Xrotation Yrotation Zrotation
										JOINT newVegas:LeftHandThumb3
										{
											OFFSET 5.159721 -2.978973 2.978967
											CHANNELS 3 Xrotation Yrotation Zrotation
											End Site
											{
												OFFSET 2.494507 5.926697 1.738678
											}
										}
									}
								}
								JOINT newVegas:LeftHandIndex1
								{
									OFFSET 18.578728 -0.527832 5.208049
									CHANNELS 3 Xrotation Yrotation Zrotation
									JOINT newVegas:LeftHandIndex2
									{
										OFFSET 3.192009 0.000000 0.000000
										CHANNELS 3 Xrotation Yrotation Zrotation
										JOINT newVegas:LeftHandIndex3
										{
											OFFSET 3.835129 0.000000 0.000000
											CHANNELS 3 Xrotation Yrotation Zrotation
											End Site
											{
												OFFSET -0.034599 3.816971 0.371180
											}
										}
									}
								}
								JOINT newVegas:LeftHandMiddle1
								{
									OFFSET 18.476105 0.000000 0.000000
									CHANNELS 3 Xrotation Yrotation Zrotation
									JOINT newVegas:LeftHandMiddle2
									{
										OFFSET 3.324875 0.000000 0.000000
										CHANNELS 3 Xrotation Yrotation Zrotation
										JOINT newVegas:LeftHandMiddle3
										{
											OFFSET 4.596550 0.000000 0.000000
											CHANNELS 3 Xrotation Yrotation Zrotation
											End Site
											{
												OFFSET 0.057701 4.578827 0.399218
											}
										}
									}
								}
								JOINT newVegas:LeftHandRing1
								{
									OFFSET 17.732719 0.121887 -4.201567
									CHANNELS 3 Xrotation Yrotation Zrotation
									JOINT newVegas:LeftHandRing2
									{
										OFFSET 2.733170 0.000000 0.000000
										CHANNELS 3 Xrotation Yrotation Zrotation
										JOINT newVegas:LeftHandRing3
										{
											OFFSET 3.178268 0.000000 0.000000
											CHANNELS 3 Xrotation Yrotation Zrotation
											End Site
											{
												OFFSET 0.119102 3.170624 0.185394
											}
										}
									}
								}
								JOINT newVegas:LeftHandPinky1
								{
									OFFSET 15.989624 -0.606689 -7.535461
									CHANNELS 3 Xrotation Yrotation Zrotation
									JOINT newVegas:LeftHandPinky2
									{
										OFFSET 2.538986 0.000000 0.000000
										CHANNELS 3 Xrotation Yrotation Zrotation
										JOINT newVegas:LeftHandPinky3
										{
											OFFSET 2.593102 0.000000 0.000000
											CHANNELS 3 Xrotation Yrotation Zrotation
											End Site
											{
												OFFSET -0.150902 2.584198 0.152708
											}
										}
									}
								}
							}
							JOINT newVegas:Left_Sleeve
							{
								OFFSET 0.267448 -0.649796 0.577675
								CHANNELS 3 Xrotation Yrotation Zrotation
								End Site
								{
									OFFSET 0.000000 15.991241 0.000000
								}
							}
							JOINT newVegas:Left_CapeC
							{
								OFFSET 15.715958 -8.608795 -6.935905
								CHANNELS 3 Xrotation Yrotation Zrotation
								JOINT newVegas:Left_CapeC1
								{
									OFFSET 0.000000 -8.688499 0.000000
									CHANNELS 3 Xrotation Yrotation Zrotation
									End Site
									{
										OFFSET 0.000000 8.688499 0.000000
									}
								}
							}
						}
						JOINT newVegas:Left_CapeB
						{
							OFFSET 26.118385 -8.608795 -7.079235
							CHANNELS 3 Xrotation Yrotation Zrotation
							JOINT newVegas:Left_CapeB1
							{
								OFFSET 0.000000 -8.688499 0.000000
								CHANNELS 3 Xrotation Yrotation Zrotation
								End Site
								{
									OFFSET 0.000000 8.688499 0.000000
								}
							}
						}
						JOINT newVegas:Left_CapeA
						{
							OFFSET 5.115639 -8.608795 -10.395809
							CHANNELS 3 Xrotation Yrotation Zrotation
							JOINT newVegas:Left_CapeA1
							{
								OFFSET 0.000000 -8.688499 0.000000
								CHANNELS 3 Xrotation Yrotation Zrotation
								End Site
								{
									OFFSET 0.000000 8.688499 0.000000
								}
							}
						}
					}
				}
				JOINT newVegas:RightShoulder
				{
					OFFSET -15.263000 10.923401 -0.547700
					CHANNELS 3 Xrotation Yrotation Zrotation
					JOINT newVegas:RightArm
					{
						OFFSET -25.438599 -2.830597 -13.032500
						CHANNELS 3 Xrotation Yrotation Zrotation
						JOINT newVegas:RightForeArm
						{
							OFFSET -29.960503 0.000000 0.000000
							CHANNELS 3 Xrotation Yrotation Zrotation
							JOINT newVegas:RightHand
							{
								OFFSET -27.849251 0.000000 0.000000
								CHANNELS 3 Xrotation Yrotation Zrotation
								JOINT newVegas:RightHandThumb1
								{
									OFFSET -4.487587 -3.305161 6.305391
									CHANNELS 3 Xrotation Yrotation Zrotation
									JOINT newVegas:RightHandThumb2
									{
										OFFSET -5.480453 -3.164139 3.164143
										CHANNELS 3 Xrotation Yrotation Zrotation
										JOINT newVegas:RightHandThumb3
										{
											OFFSET -5.159721 -2.978973 2.978967
											CHANNELS 3 Xrotation Yrotation Zrotation
											End Site
											{
												OFFSET -2.494507 5.926697 1.738678
											}
										}
									}
								}
								JOINT newVegas:RightHandIndex1
								{
									OFFSET -18.578728 -0.527832 5.208049
									CHANNELS 3 Xrotation Yrotation Zrotation
									JOINT newVegas:RightHandIndex2
									{
										OFFSET -3.192009 0.000000 0.000000
										CHANNELS 3 Xrotation Yrotation Zrotation
										JOINT newVegas:RightHandIndex3
										{
											OFFSET -3.835129 0.000000 0.000000
											CHANNELS 3 Xrotation Yrotation Zrotation
											End Site
											{
												OFFSET 0.034599 3.816971 0.371180
											}
										}
									}
								}
								JOINT newVegas:RightHandMiddle1
								{
									OFFSET -18.476105 0.000000 0.000000
									CHANNELS 3 Xrotation Yrotation Zrotation
									JOINT newVegas:RightHandMiddle2
									{
										OFFSET -3.324875 0.000000 0.000000
										CHANNELS 3 Xrotation Yrotation Zrotation
										JOINT newVegas:RightHandMiddle3
										{
											OFFSET -4.596550 0.000000 0.000000
											CHANNELS 3 Xrotation Yrotation Zrotation
											End Site
											{
												OFFSET -0.057701 4.578827 0.399218
											}
										}
									}
								}
								JOINT newVegas:RightHandRing1
								{
									OFFSET -17.732719 0.121887 -4.201567
									CHANNELS 3 Xrotation Yrotation Zrotation
									JOINT newVegas:RightHandRing2
									{
										OFFSET -2.733170 0.000000 0.000000
										CHANNELS 3 Xrotation Yrotation Zrotation
										JOINT newVegas:RightHandRing3
										{
											OFFSET -3.178268 0.000000 0.000000
											CHANNELS 3 Xrotation Yrotation Zrotation
											End Site
											{
												OFFSET -0.119102 3.170624 0.185394
											}
										}
									}
								}
								JOINT newVegas:RightHandPinky1
								{
									OFFSET -15.989624 -0.606689 -7.535461
									CHANNELS 3 Xrotation Yrotation Zrotation
									JOINT newVegas:RightHandPinky2
									{
										OFFSET -2.538986 0.000000 0.000000
										CHANNELS 3 Xrotation Yrotation Zrotation
										JOINT newVegas:RightHandPinky3
										{
											OFFSET -2.593102 0.000000 0.000000
											CHANNELS 3 Xrotation Yrotation Zrotation
											End Site
											{
												OFFSET 0.150902 2.584198 0.152708
											}
										}
									}
								}
							}
							JOINT newVegas:Right_CapeC
							{
								OFFSET -15.715958 -8.608795 -6.935905
								CHANNELS 3 Xrotation Yrotation Zrotation
								JOINT newVegas:Right_CapeC1
								{
									OFFSET 0.000000 -8.688499 0.000000
									CHANNELS 3 Xrotation Yrotation Zrotation
									End Site
									{
										OFFSET 0.000000 8.688499 0.000000
									}
								}
							}
							JOINT newVegas:Right_Sleeve
							{
								OFFSET -0.267448 -0.649994 0.577675
								CHANNELS 3 Xrotation Yrotation Zrotation
								End Site
								{
									OFFSET 0.000000 15.991302 0.000000
								}
							}
						}
						JOINT newVegas:Right_CapeA
						{
							OFFSET -5.115540 -8.608795 -10.395824
							CHANNELS 3 Xrotation Yrotation Zrotation
							JOINT newVegas:Right_CapeA1
							{
								OFFSET 0.000000 -8.688499 0.000000
								CHANNELS 3 Xrotation Yrotation Zrotation
								End Site
								{
									OFFSET 0.000000 8.688499 0.000000
								}
							}
						}
						JOINT newVegas:Right_CapeB
						{
							OFFSET -26.118187 -8.608795 -7.079266
							CHANNELS 3 Xrotation Yrotation Zrotation
							JOINT newVegas:Right_CapeB1
							{
								OFFSET 0.000000 -8.688499 0.000000
								CHANNELS 3 Xrotation Yrotation Zrotation
								End Site
								{
									OFFSET 0.000000 8.688499 0.000000
								}
							}
						}
					}
				}
				JOINT newVegas:Left_Collar
				{
					OFFSET 18.625099 8.655502 8.828100
					CHANNELS 3 Xrotation Yrotation Zrotation
					JOINT newVegas:Left_Collar1
					{
						OFFSET 14.783401 10.540405 -1.259500
						CHANNELS 3 Xrotation Yrotation Zrotation
						End Site
						{
							OFFSET 0.000000 18.199875 0.000000
						}
					}
				}
				JOINT newVegas:Collar_Back
				{
					OFFSET 0.000000 15.630707 -20.132601
					CHANNELS 3 Xrotation Yrotation Zrotation
					End Site
					{
						OFFSET 0.000000 22.523010 0.000000
					}
				}
				JOINT newVegas:Left_Peck
				{
					OFFSET 17.239599 -5.132599 25.482599
					CHANNELS 3 Xrotation Yrotation Zrotation
					End Site
					{
						OFFSET 0.000000 22.523010 0.000000
					}
				}
				JOINT newVegas:Right_Peck
				{
					OFFSET -17.239599 -5.132202 25.482599
					CHANNELS 3 Xrotation Yrotation Zrotation
					End Site
					{
						OFFSET 0.000000 22.523010 0.000000
					}
				}
				JOINT newVegas:Right_Collar
				{
					OFFSET -18.625099 8.655792 8.828100
					CHANNELS 3 Xrotation Yrotation Zrotation
					JOINT newVegas:Right_Collar1
					{
						OFFSET -14.783401 10.539993 -1.259500
						CHANNELS 3 Xrotation Yrotation Zrotation
						End Site
						{
							OFFSET 0.000000 18.199631 0.000000
						}
					}
				}
			}
		}
		JOINT newVegas:Belly
		{
			OFFSET 0.000000 -6.540398 9.014299
			CHANNELS 3 Xrotation Yrotation Zrotation
			End Site
			{
				OFFSET 0.000000 11.566666 0.000000
			}
		}
	}
	JOINT newVegas:ElvisFacialAnim_Joint
	{
		OFFSET 1.000000 -95.330101 -8.825800
		CHANNELS 3 Xrotation Yrotation Zrotation
		End Site
		{
			OFFSET 0.000000 35.315800 0.000000
		}
	}
}
MOTION
Frames: 4
Frame Time: 0.016667
11.095310 25.192673 401.856659 46.324440 -48.594368 79.059084 0.000001 0.000000 0.000001 -69.111938 -14.260214 41.623695 34.760899 -15.853704 1.572972 1.261853 3.661254 -43.310445 0.000000 -0.000000 0.000001 -0.000001 0.000000 0.000002 -106.624758 -4.681144 -12.145528 129.372321 19.666065 -2.750550 46.189195 17.130657 46.602398 0.000000 0.000003 -0.000002 0.000003 -0.000004 -0.000001 10.072938 -7.212764 -2.186961 20.581467 -10.516337 -0.144608 20.581465 -10.516337 -0.144614 1.278248 2.016723 -1.256897 1.278271 2.016708 -1.256882 0.000000 -0.000001 0.000001 1.278236 2.016709 -1.256884 1.278234 2.016716 -1.256893 -0.000000 -0.000001 0.000001 0.000000 -0.000001 0.000000 0.362232 -5.563728 -21.430641 0.286719 6.219475 -63.452027 -148.351750 -173.569095 -190.299329 39.822199 -0.729464 37.310619 -4.114271 -2.883214 2.590915 3.243725 8.782388 2.381167 0.000003 0.000001 -0.000003 -1.241500 -9.199124 -7.937334 0.088635 0.738671 -16.880085 -0.000000 0.000000 -0.000000 -1.135457 -2.096684 -22.025793 -0.352562 -1.388814 -20.431051 -0.000001 -0.000001 0.000001 -0.604914 6.370742 -33.094278 -0.503182 -2.580194 -29.586108 0.000002 -0.000001 0.000004 1.054954 14.668680 -34.412327 -0.798125 -5.868257 -45.099937 0.000002 -0.000005 0.000002 -0.000002 0.000000 0.000001 -0.000002 0.000000 0.000001 -0.000002 0.000000 0.000001 -0.000001 0.000000 -0.000000 -0.000001 0.000000 -0.000000 -0.000001 0.000000 -0.000000 -0.000001 0.000000 -0.000000 -0.050573 24.927848 12.864281 -31.840064 -0.829609 -5.819320 -379.939272 5.531927 357.334734 -23.422676 14.855865 -3.043152 -8.673384 4.254490 -11.634314 1.334047 -4.465153 -1.906668 0.000001 -0.000006 -0.000009 -0.335823 9.317625 2.768373 0.227940 -1.535012 12.475396 0.000001 -0.000001 0.000003 -1.156259 -1.644400 1.983697 -0.068697 0.174105 10.971365 0.000001 0.000002 0.000001 1.493772 -11.293062 7.517308 -0.170914 1.899011 13.176988 0.000001 0.000000 0.000005 2.276086 -19.062995 5.358309 -0.684456 6.522605 19.944084 -0.000002 -0.000000 0.000001 0.000004 0.000001 -0.000001 0.000004 0.000000 -0.000000 0.000004 0.000000 0.000001 -0.000000 0.000003 0.000002 0.000000 0.000003 0.000001 -0.000000 0.000003 0.000002 0.000000 0.000003 0.000000 -0.000000 -0.000000 -0.000000 -0.000000 -0.000000 -0.000000 -0.000000 -0.000000 -0.000000 -0.000000 -0.000000 -0.000000 -0.000000 -0.000000 -0.000000 -0.000000 -0.000000 -0.000000 -0.000000 -0.000000 -0.000000 0.000001 -0.000002 -0.000001 0.000001 0.000000 0.000001 
11.346550 26.106529 408.221252 48.422790 -47.701727 77.437953 0.000002 -0.000001 -0.000001 -73.228015 -15.898949 45.489613 34.630569 -16.606898 -0.544251 7.004226 1.400461 -47.142167 0.000000 0.000001 0.000000 -0.000000 0.000000 0.000001 -104.491615 -1.203445 -16.552673 128.668702 26.240224 -2.311159 45.467944 17.453345 48.418149 0.000001 -0.000001 -0.000000 0.000002 0.000000 -0.000001 9.840096 -5.973835 -2.071380 20.001881 -8.523660 -0.281549 20.001891 -8.523658 -0.281538 0.880005 2.108784 -0.935434 0.880002 2.108780 -0.935410 -0.000000 -0.000000 0.000000 0.880046 2.108904 -0.935454 0.880028 2.108738 -0.935434 0.000000 0.000000 0.000000 -0.000000 -0.000000 0.000000 0.397071 -5.187127 -22.907264 -0.202598 5.720612 -61.837589 -146.267026 -172.915501 -190.464579 42.708872 -0.958245 34.784436 -4.445388 -3.482518 2.728197 2.927691 8.062627 2.313120 0.000000 -0.000003 0.000004 -1.336426 -9.878733 -7.883072 0.087934 0.739313 -16.878482 0.000001 -0.000002 -0.000000 -1.169755 -2.214617 -21.672130 -0.339394 -1.353849 -20.091321 -0.000001 -0.000000 -0.000000 -0.583568 6.403817 -32.534541 -0.486671 -2.550248 -29.022935 -0.000000 -0.000002 0.000001 1.177306 14.915646 -33.689560 -0.786892 -5.857052 -44.330725 -0.000000 -0.000003 -0.000001 0.000000 0.000000 0.000001 0.000000 0.000000 0.000001 -0.000000 -0.000000 0.000001 -0.000000 -0.000001 -0.000000 -0.000000 -0.000001 -0.000000 -0.000000 -0.000001 -0.000000 -0.000000 -0.000001 -0.000000 -0.236751 25.773727 13.779215 -31.371428 -4.560767 -1.693874 -384.756796 7.161670 357.547508 -27.510933 12.091519 2.976920 -7.433046 2.682784 -10.818174 1.979897 -5.919503 -2.080305 0.000001 0.000001 -0.000000 -0.393893 9.214375 3.477793 0.148230 -1.237764 15.555670 -0.000001 -0.000001 0.000003 -1.160003 -1.569473 2.937664 -0.161682 0.560306 15.420964 0.000001 0.000001 -0.000001 1.457526 -10.868847 11.271570 -0.249406 2.199699 16.784281 -0.000001 0.000003 -0.000002 2.263663 -18.388025 10.401814 -0.823576 6.882900 24.954907 -0.000001 0.000002 -0.000000 -0.000002 0.000002 0.000002 -0.000002 0.000001 0.000004 -0.000002 0.000002 0.000002 -0.000001 0.000001 -0.000001 -0.000001 0.000002 -0.000001 -0.000001 0.000001 -0.000001 -0.000001 0.000002 -0.000002 -0.000000 -0.000001 0.000000 -0.000000 -0.000001 0.000000 -0.000000 -0.000001 0.000000 -0.000000 -0.000001 0.000000 -0.000000 -0.000001 0.000000 -0.000000 -0.000001 0.000000 -0.000000 -0.000001 0.000000 0.000000 -0.000001 -0.000002 0.000002 -0.000001 -0.000001 
11.524418 27.066002 413.862579 49.221960 -47.131386 75.606315 0.000003 0.000001 0.000001 -80.413197 -19.157432 46.255352 42.253698 -17.206872 -2.617854 10.651666 -0.149087 -43.960392 0.000001 -0.000001 -0.000001 -0.000001 -0.000000 0.000001 -101.716652 0.448488 -21.405350 126.617746 29.924971 -1.961899 46.472327 17.999963 48.555883 -0.000001 0.000000 -0.000003 0.000002 0.000000 -0.000000 9.515292 -5.007697 -2.336115 19.278004 -6.757571 -0.819784 19.277995 -6.757570 -0.819794 0.472718 2.209577 -0.623712 0.472731 2.209568 -0.623705 0.000000 0.000000 0.000001 0.472760 2.209580 -0.623701 0.472690 2.209567 -0.623678 0.000000 -0.000001 0.000001 0.000000 0.000000 0.000001 0.465112 -4.608219 -24.755898 -0.485222 5.159803 -58.615386 -144.010782 -172.188290 -190.600254 45.765724 -1.440278 30.198793 -4.773357 -4.073346 2.858748 2.615707 7.353339 2.242182 0.000002 0.000001 -0.000003 -1.428891 -10.548852 -7.827921 0.087329 0.740319 -16.874291 -0.000001 0.000001 0.000001 -1.201783 -2.331310 -21.321001 -0.326562 -1.319100 -19.753894 -0.000001 0.000000 0.000000 -0.562672 6.436990 -31.980295 -0.470583 -2.520378 -28.465297 0.000002 -0.000001 0.000000 1.292191 15.162492 -32.973397 -0.775877 -5.845695 -43.570002 -0.000002 -0.000003 -0.000002 0.000000 -0.000000 -0.000000 0.000000 -0.000000 -0.000000 -0.000001 -0.000000 -0.000000 -0.000000 0.000002 0.000000 -0.000000 0.000002 0.000000 -0.000000 0.000002 0.000000 -0.000000 0.000002 0.000000 -0.396561 26.079974 14.675674 -30.053481 -9.716189 4.642502 -391.232525 11.814319 359.537961 -30.477906 10.402949 5.041876 -6.133038 1.047356 -9.912466 2.654139 -7.447399 -2.244909 0.000001 0.000003 -0.000006 -0.450090 9.106268 4.214744 0.053986 -0.930983 18.768632 0.000001 -0.000001 0.000000 -1.164872 -1.492389 3.920525 -0.288221 0.955481 20.070726 0.000000 -0.000001 0.000001 1.386769 -10.440761 15.187361 -0.353072 2.507094 20.550981 -0.000000 -0.000001 -0.000000 2.167646 -17.721327 15.653573 -1.011861 7.240415 30.198664 0.000000 -0.000000 0.000000 0.000001 0.000002 0.000001 0.000001 -0.000001 -0.000000 0.000002 0.000002 0.000001 0.000001 0.000003 -0.000001 0.000001 0.000003 -0.000001 0.000001 0.000003 -0.000001 0.000001 0.000003 -0.000002 -0.000000 0.000000 -0.000000 -0.000000 0.000000 -0.000000 -0.000000 0.000000 -0.000000 -0.000000 0.000000 -0.000000 -0.000000 0.000000 -0.000000 -0.000000 0.000000 -0.000000 -0.000000 0.000000 -0.000000 -0.000002 -0.000000 -0.000001 0.000003 0.000001 0.000001 
11.686989 27.968536 419.352264 48.348894 -47.200381 73.231007 0.000000 -0.000002 -0.000002 -88.245177 -21.849152 45.197623 51.165439 -17.678601 -4.646931 13.993560 -1.375729 -39.524706 0.000001 0.000001 -0.000001 -0.000001 0.000000 0.000002 -97.505738 2.119910 -27.018540 124.727355 32.898757 -1.566093 47.376422 18.432111 48.503772 0.000001 0.000000 -0.000002 -0.000001 -0.000000 0.000000 9.202515 -4.078831 -2.809516 18.588285 -5.258758 -1.680267 18.588305 -5.258758 -1.680265 0.085576 2.307814 -0.337899 0.085573 2.307825 -0.337958 -0.000000 0.000000 0.000001 0.085523 2.307801 -0.337894 0.085618 2.307824 -0.337913 0.000000 0.000002 0.000000 -0.000000 0.000000 0.000001 0.565326 -3.855086 -26.469881 -0.377986 4.639001 -53.992365 -141.899557 -171.460834 -190.722979 48.339981 -2.166183 23.977634 -5.095732 -4.651568 2.981478 2.310047 6.659723 2.169112 0.000001 -0.000003 -0.000001 -1.518657 -11.204954 -7.773435 0.086788 0.741574 -16.868781 0.000000 0.000001 0.000001 -1.231398 -2.446059 -20.976302 -0.314207 -1.284947 -19.422587 0.000002 -0.000000 -0.000000 -0.542352 6.469898 -31.437004 -0.455122 -2.490891 -27.918718 0.000001 -0.000002 0.000001 1.399144 15.407085 -32.270786 -0.765218 -5.834307 -42.824859 -0.000000 0.000002 -0.000002 0.000000 0.000000 -0.000001 0.000000 0.000000 -0.000001 -0.000000 0.000000 -0.000001 -0.000000 0.000001 0.000001 -0.000000 0.000001 0.000001 -0.000000 0.000001 0.000001 -0.000000 0.000001 0.000001 -0.494401 25.605336 15.379843 -27.617726 -15.476806 13.095677 -397.951300 18.998057 362.816097 -31.421500 9.986946 3.015511 -4.886142 -0.502121 -8.999062 3.296521 -8.910265 -2.385447 0.000000 -0.000001 0.000001 -0.500769 9.004445 4.908682 -0.045893 -0.643393 21.813387 -0.000001 0.000000 0.000000 -1.170230 -1.421054 4.831210 -0.435746 1.321415 24.491202 -0.000001 0.000001 -0.000001 1.289299 -10.051217 18.899810 -0.471393 2.791373 24.127254 -0.000000 0.000001 -0.000000 2.001313 -17.132476 20.631042 -1.228854 7.557161 35.191365 0.000001 -0.000004 -0.000001 0.000004 -0.000001 -0.000002 -0.000000 -0.000000 0.000003 0.000004 -0.000001 -0.000002 -0.000001 -0.000003 -0.000000 -0.000001 -0.000003 -0.000000 -0.000001 -0.000003 -0.000000 -0.000001 -0.000003 0.000001 -0.000000 0.000001 -0.000000 -0.000000 0.000001 -0.000000 -0.000000 0.000001 -0.000000 -0.000000 0.000001 -0.000000 -0.000000 0.000001 -0.000000 -0.000000 0.000001 -0.000000 -0.000000 0.000001 -0.000000 0.000004 0.000001 -0.000001 0.000000 -0.000002 -0.000002 
